HIERARCHY
ROOT hip
{
	OFFSET 0.000000 0.000000 0.000000
	CHANNELS 6 Xposition Yposition Zposition Xrotation Zrotation Yrotation 
	JOINT abdomen
	{
		OFFSET 0.000000 3.422050 0.000000
		CHANNELS 3 Xrotation Zrotation Yrotation 
		JOINT chest
		{
			OFFSET 0.000000 8.486693 -0.684411
			CHANNELS 3 Xrotation Zrotation Yrotation 
			JOINT neck
			{
				OFFSET 0.000000 10.266162 -0.273764
				CHANNELS 3 Xrotation Zrotation Yrotation 
				JOINT head
				{
					OFFSET 0.000000 3.148285 0.000000
					CHANNELS 3 Xrotation Zrotation Yrotation 
					End Site
					{
						OFFSET 0.000000 3.148289 0.000000
					}
				}
			}
			JOINT lCollar
			{
				OFFSET 3.422053 6.707223 -0.821293
				CHANNELS 3 Yrotation Zrotation Xrotation 
				JOINT lShldr
				{
					OFFSET 3.285171 0.000000 0.000000
					CHANNELS 3 Zrotation Yrotation Xrotation 
					JOINT lForeArm
					{
						OFFSET 10.129278 0.000000 0.000000
						CHANNELS 3 Yrotation Zrotation Xrotation 
						JOINT lHand
						{
							OFFSET 8.486692 0.000000 0.000000
							CHANNELS 3 Zrotation Yrotation Xrotation 
							End Site
							{
								OFFSET 4.106464 0.000000 0.000000
							}
						}
					}
				}
			}
			JOINT rCollar
			{
				OFFSET -3.558935 6.707223 -0.821293
				CHANNELS 3 Yrotation Zrotation Xrotation 
				JOINT rShldr
				{
					OFFSET -3.148289 0.000000 0.000000
					CHANNELS 3 Zrotation Yrotation Xrotation 
					JOINT rForeArm
					{
						OFFSET -10.266159 0.000000 0.000000
						CHANNELS 3 Yrotation Zrotation Xrotation 
						JOINT rHand
						{
							OFFSET -8.349810 0.000000 0.000000
							CHANNELS 3 Zrotation Yrotation Xrotation 
							End Site
							{
								OFFSET -4.106464 0.000000 0.000000
							}
						}
					}
				}
			}
		}
	}
	JOINT lThigh
	{
		OFFSET 5.338403 -1.642589 1.368821
		CHANNELS 3 Xrotation Zrotation Yrotation 
		JOINT lShin
		{
			OFFSET -2.053232 -20.121670 0.000000
			CHANNELS 3 Xrotation Zrotation Yrotation 
			JOINT lFoot
			{
				OFFSET 0.000000 -19.300380 -1.231939
				CHANNELS 3 Xrotation Yrotation Zrotation 
				End Site
				{
					OFFSET 0.000000 -2.463878 4.653993
				}
			}
		}
	}
	JOINT rThigh
	{
		OFFSET -5.338403 -1.642589 1.368821
		CHANNELS 3 Xrotation Zrotation Yrotation 
		JOINT rShin
		{
			OFFSET 2.053232 -20.121670 0.000000
			CHANNELS 3 Xrotation Zrotation Yrotation 
			JOINT rFoot
			{
				OFFSET 0.000000 -19.300380 -1.231939
				CHANNELS 3 Xrotation Yrotation Zrotation 
				End Site
				{
					OFFSET 0.000000 -2.463878 4.653993
				}
			}
		}
	}
}
MOTION
Frames: 6
Frame Time: 0.049989
0.000000 43.528500 0.000000 0.000000 0.000000 0.000000 0.000000 0.000000 0.000000 0.000000 0.000000 0.000000 0.000000 0.000000 0.000000 0.000000 0.000000 0.000000 0.000000 0.000000 0.000000 0.000000 0.000000 0.000000 0.000000 0.000000 0.000000 0.000000 0.000000 0.000000 0.000000 0.000000 0.000000 0.000000 0.000000 0.000000 0.000000 0.000000 0.000000 0.000000 0.000000 0.000000 0.000000 0.000000 0.000000 0.000000 0.000000 0.000000 0.000000 0.000000 0.000000 0.000000 0.000000 0.000000 0.000000 0.000000 0.000000 0.000000 0.000000 0.000000 
19.995884 41.404854 1.054316 0.000000 0.000000 0.000000 2.716318 -0.523723 -0.115610 17.800772 -0.609568 -0.684835 -0.820081 0.000000 0.000000 -0.613743 0.000000 0.000000 -0.001347 -8.002656 -0.194655 -57.741531 -4.001737 -0.451969 -26.001497 0.000000 0.000000 -7.000325 0.000000 0.000000 -0.002182 7.999156 -0.194408 57.737442 3.998658 -0.453797 25.997908 0.000000 0.000000 6.996825 0.000000 0.000000 -20.230879 10.933756 9.937612 41.067867 1.463302 -0.581623 -17.597921 6.624269 -15.686709 -20.325382 -9.915351 -10.176389 41.345009 -1.656596 0.531856 -18.021509 -6.811956 14.851131 
19.995884 41.404854 1.079203 -0.977794 0.000000 0.000000 3.134114 -0.503400 -0.115734 18.351423 -0.609632 -0.684845 -1.514464 0.000000 0.000000 -0.613743 0.000000 0.000000 -0.001347 -8.002656 -0.194655 -57.741531 -4.001737 -0.451969 -26.001499 0.000000 0.000000 -7.000325 0.000000 0.000000 -0.002182 7.999157 -0.194408 57.737442 3.998658 -0.453797 25.997910 0.000000 0.000000 6.996825 0.000000 0.000000 -19.049187 10.951189 10.016030 41.067867 1.463302 -0.581623 -17.597921 6.624269 -15.686711 -19.145109 -9.934014 -10.246245 41.345009 -1.656596 0.531856 -18.021511 -6.811956 14.851131 
19.995884 41.404854 1.104091 -1.956446 0.000000 0.000000 3.551975 -0.483074 -0.115709 18.902227 -0.609696 -0.684856 -2.209912 0.000000 0.000000 -0.613743 0.000000 0.000000 -0.001347 -8.002657 -0.194655 -57.741531 -4.001738 -0.451969 -26.001499 0.000000 0.000000 -7.000325 0.000000 0.000000 -0.002182 7.999157 -0.194408 57.737442 3.998659 -0.453796 25.997910 0.000000 0.000000 6.996826 0.000000 0.000000 -17.865921 10.967052 10.094902 41.067867 1.463302 -0.581623 -17.597921 6.624270 -15.686709 -17.963264 -9.951274 -10.316568 41.345016 -1.656596 0.531856 -18.021509 -6.811956 14.851131 
19.995884 41.404854 1.128979 -2.935813 0.000000 0.000000 3.969890 -0.462745 -0.115536 19.453156 -0.609759 -0.684867 -2.906377 0.000000 0.000000 -0.613743 0.000000 0.000000 -0.001347 -8.002655 -0.194655 -57.741531 -4.001737 -0.451969 -26.001497 0.000000 0.000000 -7.000325 0.000000 0.000000 -0.002182 7.999156 -0.194408 57.737434 3.998658 -0.453797 25.997908 0.000000 0.000000 6.996825 0.000000 0.000000 -16.681334 10.981326 10.174181 41.067867 1.463302 -0.581623 -17.597921 6.624269 -15.686709 -16.780094 -9.967120 -10.387318 41.345009 -1.656596 0.531856 -18.021509 -6.811956 14.851131 
19.995884 41.404854 1.153867 -3.915754 0.000000 0.000000 4.387850 -0.442416 -0.115214 20.004189 -0.609823 -0.684878 -3.603806 0.000000 0.000000 -0.613743 0.000000 0.000000 -0.001347 -8.002656 -0.194655 -57.741531 -4.001737 -0.451969 -26.001497 0.000000 0.000000 -7.000325 0.000000 0.000000 -0.002182 7.999156 -0.194408 57.737434 3.998658 -0.453796 25.997908 0.000000 0.000000 6.996825 0.000000 0.000000 -15.495680 10.993999 10.253812 41.067867 1.463302 -0.581623 -17.597921 6.624269 -15.686709 -15.595851 -9.981529 -10.458443 41.345009 -1.656596 0.531856 -18.021507 -6.811955 14.851131 
